<svg xmlns="http://www.w3.org/2000/svg" width="512" height="512" viewBox="0 0 512 512" role="img" aria-labelledby="title desc">
  <title id="title">OpenE2EE shield logo — light mode</title>
  <desc id="desc">A split-color shield containing aligned O and E letterforms.</desc>
  <metadata>Mode: light; small-size: false; intended background: #F6F8FC; no gradients; no font dependency.</metadata>
  <defs>
    <clipPath id="shield-right-half">
      <rect x="256" width="256" height="512"/>
    </clipPath>
  </defs>
  <g>
    <path d="M256 36C305 61 355 74 420 79V238C420 340 355 418 256 470C157 418 92 340 92 238V79C157 74 207 61 256 36Z" fill="#284D79"/>
    <path d="M256 36C305 61 355 74 420 79V238C420 340 355 418 256 470C157 418 92 340 92 238V79C157 74 207 61 256 36Z" fill="#19365F" clip-path="url(#shield-right-half)"/>
    <path d="M256 36C305 61 355 74 420 79V238C420 340 355 418 256 470C157 418 92 340 92 238V79C157 74 207 61 256 36Z" fill="none" stroke="#0B1D36" stroke-width="14" stroke-linejoin="round"/>
    <path d="M256 36C305 61 355 74 420 79V238C420 340 355 418 256 470C157 418 92 340 92 238V79C157 74 207 61 256 36Z" fill="none" stroke="#4C78D0" stroke-width="4" stroke-linejoin="round"/>
    <path d="M148 174H244V338H148ZM174 199V313H218V199Z" fill="#FFFFFF" fill-rule="evenodd"/>
    <path d="M270 174H370V199H298V240H360V265H298V313H370V338H270Z" fill="#FFFFFF"/>
  </g>
</svg>
